<?xml version="1.0" encoding="UTF-8"?>
<svg version="1.1" xmlns="http://www.w3.org/2000/svg" width="412" height="284">
<path d="M0 0 C135.96 0 271.92 0 412 0 C412 93.72 412 187.44 412 284 C276.04 284 140.08 284 0 284 C0 190.28 0 96.56 0 0 Z " fill="#FCFCFC" transform="translate(0,0)"/>
<path d="M0 0 C8.33775837 2.15631682 8.33775837 2.15631682 10.96875 5.796875 C16.32938633 15.53754345 18.40627028 26.99330711 19.625 37.9375 C20.36991699 37.99172119 21.11483398 38.04594238 21.88232422 38.10180664 C44.36295409 39.77795015 66.77407384 42.04431664 89.1875 44.4375 C90.24270969 44.55005064 90.24270969 44.55005064 91.31923676 44.66487503 C96.15187641 45.18051707 100.98424145 45.69867753 105.81640625 46.21875 C106.48613213 46.2907707 107.155858 46.3627914 107.8458786 46.43699455 C114.92051756 47.19872455 121.99316187 47.97508441 129.06201172 48.7890625 C143.19339291 50.44025201 143.19339291 50.44025201 157.37890625 51.47265625 C167.81977271 51.98668786 178.17756324 53.20924867 188.5625 54.375 C190.54878449 54.59479577 192.53511252 54.81419833 194.52148438 55.03320312 C198.3845752 55.45931597 202.24689179 55.89171585 206.10888672 56.32763672 C209.73856997 56.73483291 213.36948206 57.11571496 217.00439453 57.47314453 C217.83999405 57.55790543 218.67559357 57.64266632 219.53651428 57.72999573 C221.09800767 57.88755491 222.66020975 58.03829481 224.22312927 58.18101501 C229.40064369 58.71314369 229.40064369 58.71314369 231.625 60.9375 C232.22429056 65.33489179 232.11350926 69.56356771 230.625 73.75 C227.07586363 77.6318679 223.48980167 80.63589828 218.0949707 81.20385742 C209.75299099 81.09671273 201.53976127 80.34765183 193.25 79.4375 C190.61758361 79.15224179 187.98472127 78.87218069 185.3515625 78.59375 C183.62800537 78.40522461 183.62800537 78.40522461 181.86962891 78.21289062 C178.76911343 77.94973175 175.73477695 77.88805437 172.625 77.9375 C172.9859375 78.67355469 173.346875 79.40960938 173.71875 80.16796875 C174.1828125 81.14378906 174.646875 82.11960937 175.125 83.125 C175.5890625 84.08792969 176.053125 85.05085938 176.53125 86.04296875 C177.63416428 88.96175261 177.715561 90.86521813 177.625 93.9375 C169.65600143 97.41523963 161.51513472 99.76234331 153.125 102 C150.61430278 102.67734637 148.10388045 103.35571256 145.59375 104.03515625 C144.49482422 104.32914307 143.39589844 104.62312988 142.26367188 104.92602539 C139.42950633 105.71386408 136.61441641 106.53488128 133.79882812 107.38500977 C128.84157715 108.88159956 123.8640764 110.29342388 118.875 111.6796875 C117.97740967 111.92993683 117.07981934 112.18018616 116.1550293 112.4380188 C113.31194169 113.230433 110.46847761 114.02148653 107.625 114.8125 C105.75127736 115.3345467 103.87757928 115.85668154 102.00390625 116.37890625 C97.41936826 117.65640946 92.83436343 118.93222731 88.24917603 120.20739746 C85.70978016 120.91391233 83.17065546 121.62139389 80.6315918 122.32910156 C64.47855244 126.82879614 48.32042323 131.2165971 31.9375 134.8125 C30.96337158 135.02777344 29.98924316 135.24304688 28.9855957 135.46484375 C28.07898193 135.65949219 27.17236816 135.85414063 26.23828125 136.0546875 C25.44204346 136.22597168 24.64580566 136.39725586 23.82543945 136.57373047 C21.625 136.9375 21.625 136.9375 17.625 136.9375 C16.27378285 131.26740677 14.92288773 125.59723695 13.57226562 119.92700195 C13.11466756 118.00608345 12.65698797 116.08518436 12.19921875 114.16430664 C11.53362878 111.37131014 10.86830156 108.57825123 10.203125 105.78515625 C9.98418579 104.86600937 9.76524658 103.94686249 9.53967285 102.99986267 C8.5116392 98.67984588 7.48744057 94.35900875 6.47460938 90.03540039 C6.29597351 89.27299545 6.11733765 88.51059052 5.93328857 87.7250824 C5.60658842 86.32861371 5.28070106 84.93195445 4.95587158 83.53504944 C2.81610911 74.38384604 0.33216127 65.32983902 -2.3125 56.3125 C-4.05970573 50.24581344 -5.59027229 44.13898205 -7.0625 38 C-7.27704834 37.1116748 -7.49159668 36.22334961 -7.71264648 35.30810547 C-10.28894932 24.41666955 -12.14655856 14.42670201 -7.375 3.9375 C-5.01469719 0.39704578 -4.29014022 -0.07944704 0 0 Z " fill="#0169BA" transform="translate(146.375,10.0625)"/>
<path d="M0 0 C4.97419371 -0.19896775 9.57648503 0.17700284 14.5 0.9375 C19.39446865 1.68455048 24.17979984 2.15791948 29.125 2.375 C38.12818742 2.8511725 46.97963092 4.19406333 55.88916016 5.54052734 C62.9165121 6.59635858 69.91405631 7.45361398 77 8 C75.0968539 12.08005879 72.39168222 15.20613951 69.4375 18.5625 C68.34144897 19.82335107 67.24640511 21.08507833 66.15234375 22.34765625 C65.34385986 23.27989014 65.34385986 23.27989014 64.51904297 24.23095703 C62.46864567 26.61880319 60.48066779 29.05414785 58.5 31.5 C55.64687487 35.02022273 52.73425457 38.47275965 49.75927734 41.8894043 C41.69472913 51.16324339 33.82301462 60.76547807 27 71 C26.34 71 25.68 71 25 71 C24.87882812 69.97519531 24.75765625 68.95039063 24.6328125 67.89453125 C24.46389541 66.53381021 24.2946048 65.1731355 24.125 63.8125 C24.04636719 63.13896484 23.96773438 62.46542969 23.88671875 61.77148438 C23.39232858 57.87340805 22.52401675 54.60513206 21 51 C21 50.01 21 49.02 21 48 C18.60309083 48.6210859 16.20752506 49.24672366 13.8125 49.875 C13.13896484 50.04902344 12.46542969 50.22304687 11.77148438 50.40234375 C8.98232183 51.13704998 6.26785658 51.89058919 3.59545898 52.98217773 C0.97758729 54.00878926 -1.56265725 54.70486837 -4.296875 55.35546875 C-9.13475569 56.53390792 -13.95487308 57.76653879 -18.765625 59.05078125 C-19.44460846 59.2317334 -20.12359192 59.41268555 -20.82315063 59.59912109 C-22.2358417 59.97569084 -23.64848945 60.35242314 -25.06109619 60.72930908 C-48.31075053 66.92372804 -71.60137438 72.66152972 -95.12437439 77.72140503 C-99.31462743 78.62599359 -103.49553874 79.56457542 -107.671875 80.53125 C-125.06325775 84.54393198 -142.55828997 87.81101868 -160.1492157 90.80891418 C-164.68226468 91.58462941 -169.19441563 92.42315269 -173.703125 93.33203125 C-189.21132925 96.27752258 -204.63516295 96.39110208 -220.375 96.4375 C-222.05499084 96.44703201 -222.05499084 96.44703201 -223.7689209 96.45675659 C-257.1764219 96.57470795 -257.1764219 96.57470795 -267.5234375 86.51953125 C-273.14917552 80.19464081 -273.54059079 74.04649242 -273.29296875 65.890625 C-272.3533132 53.41199935 -265.378214 41.90670307 -258 32 C-257.34 31.67 -256.68 31.34 -256 31 C-256.01571045 31.69561035 -256.0314209 32.3912207 -256.04760742 33.10791016 C-256.11022863 36.28018971 -256.14907677 39.45233885 -256.1875 42.625 C-256.21263672 43.71941406 -256.23777344 44.81382812 -256.26367188 45.94140625 C-256.39941646 53.9229709 -256.39941646 53.9229709 -253 61 C-251.23569436 62.48979053 -251.23569436 62.48979053 -249.1875 63.3125 C-248.54167969 63.61800781 -247.89585937 63.92351562 -247.23046875 64.23828125 C-242.01703744 66.0187 -236.70222637 66.16853088 -231.2421875 66.203125 C-230.50562424 66.21009399 -229.76906097 66.21706299 -229.01017761 66.22424316 C-226.63172681 66.2416202 -224.25351175 66.24796874 -221.875 66.25 C-220.65682083 66.25151062 -220.65682083 66.25151062 -219.41403198 66.25305176 C-207.84943339 66.24333925 -196.77775608 65.69189861 -185.40751648 63.46438599 C-183.14367246 63.02771299 -180.87703433 62.61687846 -178.60668945 62.21557617 C-163.98889177 59.59025861 -149.58756125 56.13298091 -135.17773438 52.56420898 C-131.7879548 51.72481941 -128.39564427 50.89619372 -125.0025959 50.07013226 C-106.84550628 45.6689474 -106.84550628 45.6689474 -89.03564453 40.06176758 C-84.05100948 38.31830788 -78.96751261 36.95151839 -73.875 35.5625 C-71.68737885 34.95746912 -69.49988053 34.35199396 -67.3125 33.74609375 C-65.70761719 33.30305908 -65.70761719 33.30305908 -64.0703125 32.85107422 C-59.66579319 31.630165 -55.26923359 30.38236379 -50.875 29.125 C-50.05845947 28.89135742 -49.24191895 28.65771484 -48.40063477 28.41699219 C-40.19996125 26.06486703 -32.00607123 23.68922241 -23.8125 21.3125 C-23.14869324 21.120047 -22.48488647 20.92759399 -21.80096436 20.72930908 C-19.87366298 20.17034086 -17.94659458 19.61056959 -16.01953125 19.05078125 C-14.8176416 18.70225098 -13.61575195 18.3537207 -12.37744141 17.99462891 C-8.5887541 16.87889144 -4.81878384 15.70901932 -1.05737305 14.50463867 C1 14 1 14 5 14 C4.6390625 13.15695313 4.278125 12.31390625 3.90625 11.4453125 C3.4421875 10.34960938 2.978125 9.25390625 2.5 8.125 C2.0359375 7.03445312 1.571875 5.94390625 1.09375 4.8203125 C0 2 0 2 0 0 Z " fill="#FD7F08" transform="translate(332,96)"/>
<path d="M0 0 C-1.39146126 8.84920541 -3.225854 17.47999846 -5.8125 26.0625 C-6.03631348 26.84665283 -6.26012695 27.63080566 -6.49072266 28.4387207 C-8.3564571 34.38757746 -11.25323113 39.79885748 -16.79096985 43.05215454 C-19.27173153 44.11659393 -21.24628881 44.38005345 -23.93554688 44.57788086 C-25.42350769 44.69154747 -25.42350769 44.69154747 -26.94152832 44.80751038 C-28.56375305 44.9163279 -28.56375305 44.9163279 -30.21875 45.02734375 C-31.36243042 45.10927475 -32.50611084 45.19120575 -33.68444824 45.27561951 C-47.56251514 46.23355613 -61.45792032 46.8629529 -75.35488892 47.46851349 C-77.53084673 47.56385153 -79.70671643 47.66100466 -81.88256836 47.75872803 C-99.71181311 48.55904318 -117.54085951 49.32234141 -135.38476562 49.70922852 C-141.97006376 49.85852084 -148.45810133 50.21489757 -155 51 C-155.33 51.99 -155.66 52.98 -156 54 C-154.31947408 56.07836088 -153.43293447 56.92574262 -150.75677204 57.38476086 C-149.43353821 57.3916743 -149.43353821 57.3916743 -148.08357239 57.39872742 C-147.06974991 57.41126556 -146.05592743 57.42380371 -145.01138306 57.4367218 C-143.90008026 57.43528671 -142.78877747 57.43385162 -141.64379883 57.43237305 C-140.47293228 57.4425647 -139.30206573 57.45275635 -138.09571838 57.46325684 C-134.88519033 57.48829273 -131.67493703 57.50011637 -128.4643271 57.50611091 C-125.10901493 57.51548474 -121.75383559 57.54168725 -118.39860535 57.56611633 C-112.04510702 57.60981248 -105.69163442 57.6383402 -99.33803147 57.66143972 C-92.10464964 57.68847478 -84.87140122 57.73238726 -77.63811457 57.77772844 C-62.75881276 57.87061925 -47.87948036 57.9416809 -33 58 C-33 62.29 -33 66.58 -33 71 C-49.64675808 71.11595966 -66.29334845 71.20508234 -82.94041252 71.25906086 C-90.67070172 71.28479507 -98.40073469 71.31985328 -106.13085938 71.37719727 C-112.87186269 71.42717968 -119.61268035 71.45932576 -126.35386384 71.47044247 C-129.92028496 71.47693638 -133.48617516 71.49209687 -137.05242538 71.52865028 C-141.04283513 71.56921595 -145.0323337 71.56994 -149.02294922 71.56762695 C-150.19324173 71.58560333 -151.36353424 71.60357971 -152.56929016 71.62210083 C-161.22129464 71.5679983 -168.24843304 69.75156696 -174.5 63.5 C-177.24906541 58.91822432 -178.29234726 55.23562933 -178.3125 49.875 C-178.33763672 48.32425781 -178.33763672 48.32425781 -178.36328125 46.7421875 C-178 44 -178 44 -176.95849609 42.44091797 C-174.03045229 40.28667781 -170.8025795 39.85626498 -167.30078125 39.203125 C-166.13958267 38.97184906 -166.13958267 38.97184906 -164.95492554 38.73590088 C-163.28353804 38.40418399 -161.61112349 38.07760934 -159.93783569 37.75561523 C-156.38171828 37.0707401 -152.83094677 36.35990924 -149.27967834 35.65039062 C-147.46721237 35.2884711 -145.65449621 34.92780235 -143.84153748 34.56835938 C-124.473391 30.7238228 -105.22051132 26.33165035 -86 21.8125 C-85.30828705 21.64991699 -84.6165741 21.48733398 -83.90390015 21.31982422 C-52.30397728 13.93173975 -52.30397728 13.93173975 -21.140625 4.9453125 C-17.22434697 3.7665323 -13.2790498 2.74438986 -9.3125 1.75 C-8.26751343 1.48678955 -8.26751343 1.48678955 -7.20141602 1.21826172 C-2.25891224 0 -2.25891224 0 0 0 Z " fill="#034DA1" transform="translate(349,153)"/>
<path d="M0 0 C5.01791684 2.41935276 8.49958655 5.9991731 11 11 C11.81773751 17.93908689 11.29194795 22.81465956 7.19140625 28.5390625 C6 30 6 30 5 31 C39.155 31.495 39.155 31.495 74 32 C71.69 30.02 69.38 28.04 67 26 C64.41821052 20.83642104 64.33888675 16.68557397 65 11 C66.625 7.625 66.625 7.625 69 5 C69.845625 4.05125 70.69125 3.1025 71.5625 2.125 C75.192032 -0.73798961 78.91602457 -0.58359275 83.38671875 -0.34765625 C89.21361291 0.427521 93.22547943 3.27888246 96.859375 7.7734375 C99.17678223 12.29714339 98.80053292 17.09417004 98 22 C96.3125 25.375 96.3125 25.375 94 28 C92.32413409 29.99243559 90.66349113 31.99718978 89 34 C89.69520752 33.98952637 90.39041504 33.97905273 91.10668945 33.96826172 C106.35929394 33.7725726 121.52104682 34.02563746 136.75 34.875 C137.49730377 34.91429626 138.24460754 34.95359253 139.01455688 34.99407959 C146.84189704 35.41318398 154.39961844 35.9720955 162 38 C152.71340112 44.19106592 135.52227821 42.87992527 124.53125 43.60546875 C123.54680405 43.6708956 122.56235809 43.73632244 121.54808044 43.80373192 C97.03700723 45.38838183 72.54678765 45.41825881 47.9944458 45.3225708 C43.33799 45.30915115 38.68163009 45.31441384 34.02516365 45.31943512 C10.86052932 45.33826451 -12.26934931 45.09041574 -35.4140625 44.08203125 C-36.35485153 44.04171595 -37.29564056 44.00140064 -38.26493835 43.95986366 C-52.93246428 43.31416621 -67.46538991 42.13756865 -82 40 C-82 39.01 -82 38.02 -82 37 C-59.28210149 33.76768548 -36.89473061 33.66229406 -14 34 C-14 33.01 -14 32.02 -14 31 C-14.86625 30.690625 -14.86625 30.690625 -15.75 30.375 C-19.66850794 27.98035626 -21.57583774 24.27248678 -23 20 C-23.54225459 15.33305478 -23.4698456 11.92228952 -21.3125 7.6875 C-14.85257051 0.18001438 -9.64359956 -0.9088209 0 0 Z " fill="#E7E7E8" transform="translate(203,231)"/>
<path d="M0 0 C12 1 12 1 15 3 C15.72021484 4.76147461 15.72021484 4.76147461 16.2109375 6.90234375 C16.40147705 7.70124023 16.5920166 8.50013672 16.78833008 9.32324219 C16.98193115 10.18594727 17.17553223 11.04865234 17.375 11.9375 C17.80180747 13.75427767 18.23023512 15.57067537 18.66015625 17.38671875 C18.87816895 18.31661621 19.09618164 19.24651367 19.32080078 20.20458984 C19.97770545 22.90824132 20.69054381 25.5883972 21.43359375 28.26953125 C21.77994873 29.52552124 21.77994873 29.52552124 22.13330078 30.80688477 C22.57380243 32.39139232 23.02099629 33.9740605 23.47607422 35.55444336 C24.83815395 40.52477217 25.47055064 44.84035756 25 50 C23.64453125 52.13671875 23.64453125 52.13671875 21.8125 53.6875 C21.22082031 54.20699219 20.62914062 54.72648437 20.01953125 55.26171875 C19.35308594 55.83535156 18.68664062 56.40898438 18 57 C4.57417905 69.1014362 4.57417905 69.1014362 -1.4375 85.25 C-1.43556641 86.49523437 -1.43556641 86.49523437 -1.43359375 87.765625 C-2 90 -2 90 -4.0390625 91.76953125 C-7.71788143 93.29832804 -11.01832524 93.47752871 -14.9375 93.4375 C-15.62779297 93.45748047 -16.31808594 93.47746094 -17.02929688 93.49804688 C-22.17000843 93.49317416 -25.06400799 92.23832725 -29 89 C-30.4609375 87.359375 -30.4609375 87.359375 -31.375 85.75 C-31.69210938 85.22921875 -32.00921875 84.7084375 -32.3359375 84.171875 C-34.8674686 75.89227915 -31.40314618 68.39699176 -28.625 60.625 C-26.07243037 53.39803724 -23.63560318 46.38288145 -22.37255859 38.80615234 C-22 37 -22 37 -21 36 C-19.43827255 35.91314397 -17.87270656 35.89297781 -16.30859375 35.90234375 C-15.03326782 35.90609009 -15.03326782 35.90609009 -13.73217773 35.90991211 C-12.64493408 35.91901611 -11.55769043 35.92812012 -10.4375 35.9375 C-6.993125 35.958125 -3.54875 35.97875 0 36 C0 24.12 0 12.24 0 0 Z " fill="#034FA2" transform="translate(116,62)"/>
<path d="M0 0 C10.89 0 21.78 0 33 0 C33 11.88 33 23.76 33 36 C22.11 36 11.22 36 0 36 C0 24.12 0 12.24 0 0 Z " fill="#FBC607" transform="translate(83,62)"/>
<path d="M0 0 C1.45226686 0.29731889 2.90426627 0.59596613 4.35546875 0.8984375 C3.0859375 2.81901042 1.81640625 4.73958333 0.546875 6.66015625 C-1.78757042 11.04585207 -1.7607532 15.32224011 -1.70703125 20.2109375 C-1.68619792 22.10677083 -1.66536458 24.00260417 -1.64453125 25.8984375 C-9.99761235 25.30232528 -18.24380311 24.36336527 -26.51953125 23.0859375 C-27.6075 22.93318359 -28.69546875 22.78042969 -29.81640625 22.62304688 C-35.71262368 21.71122352 -40.13469737 20.92454333 -44.64453125 16.8984375 C-47.55924978 12.71168863 -47.30413423 7.80175122 -46.64453125 2.8984375 C-38.33765738 -10.85087097 -13.10168605 -2.61434313 0 0 Z " fill="#FC6D0C" transform="translate(138.64453125,9.1015625)"/>
<path d="M0 0 C10.56 0 21.12 0 32 0 C32 10.56 32 21.12 32 32 C21.44 32 10.88 32 0 32 C0 21.44 0 10.88 0 0 Z " fill="#FD9E0A" transform="translate(40,39)"/>
<path d="M0 0 C5.01791684 2.41935276 8.49958655 5.9991731 11 11 C11.78215158 17.63711481 11.51356146 22.93319116 7.46484375 28.40625 C4.36518841 31.77867501 1.68513533 32.81688351 -2.83984375 33.30859375 C-7.64230455 33.50449141 -11.10183462 33.41700535 -15.5 31.375 C-20.26836642 26.8450519 -23.09535795 22.30461838 -23.3125 15.6875 C-23.25237316 11.05773338 -22.06591027 8.5630849 -19 5 C-12.83628287 -0.42994128 -8.09617809 -0.76299061 0 0 Z " fill="#0465B8" transform="translate(203,231)"/>
<path d="M0 0 C4.61199012 3.32492311 8.16868706 6.00542079 9.203125 11.8515625 C9.41734475 18.01803104 8.95426637 22.19664847 4.6875 26.9375 C4.006875 27.700625 3.32625 28.46375 2.625 29.25 C-1.26305286 32.63636862 -5.67745921 32.27055452 -10.5859375 32.21875 C-15.7148045 31.68969782 -18.3404787 29.04087553 -21.625 25.3125 C-25.10280072 20.4178175 -24.90342873 15.81349552 -24.3125 9.9375 C-22.6875 6.5625 -22.6875 6.5625 -20.3125 3.9375 C-19.466875 2.98875 -18.62125 2.04 -17.75 1.0625 C-12.6918372 -2.92739941 -5.75888373 -1.84718912 0 0 Z " fill="#0466B9" transform="translate(292.3125,232.0625)"/>
<path d="M0 0 C7.59 0 15.18 0 23 0 C23 6.6 23 13.2 23 20 C15.41 20 7.82 20 0 20 C0 13.4 0 6.8 0 0 Z " fill="#FE9F07" transform="translate(42,96)"/>
<path d="M0 0 C7.26 0 14.52 0 22 0 C22 6.27 22 12.54 22 19 C14.74 19 7.48 19 0 19 C0 12.73 0 6.46 0 0 Z " fill="#FD700C" transform="translate(3,72)"/>
<path d="M0 0 C1.25205243 2.50410487 0.95815898 3.80064009 0.66015625 6.5703125 C0.56669922 7.46621094 0.47324219 8.36210937 0.37695312 9.28515625 C0.27318359 10.22230469 0.16941406 11.15945312 0.0625 12.125 C-0.08735352 13.54232422 -0.08735352 13.54232422 -0.24023438 14.98828125 C-0.48818915 17.32614055 -0.74166315 19.6632689 -1 22 C-1.33 22 -1.66 22 -2 22 C-2 17.38 -2 12.76 -2 8 C-3.32 8.99 -4.64 9.98 -6 11 C-4.54955729 6.89041233 -2.48889248 3.56741255 0 0 Z " fill="#F85816" transform="translate(75,127)"/>
</svg>
